<svg width="14" height="16" viewBox="0 0 14 16" fill="none" xmlns="http://www.w3.org/2000/svg">
<path fill-rule="evenodd" clip-rule="evenodd" d="M5.76956 4.09405e-05L5.73327 2.02918e-05C5.57365 -0.000116289 5.42622 -0.000242504 5.28643 0.0239743C4.73525 0.11946 4.25829 0.492417 4.00049 1.0295C3.93511 1.16571 3.88859 1.31749 3.83824 1.4818L3.82678 1.51916L3.75415 1.75555C3.73981 1.80224 3.73622 1.81373 3.73321 1.82277C3.61343 2.18199 3.3029 2.42481 2.95089 2.43449C2.94585 2.43463 2.94006 2.4347 2.92765 2.43474H0.641218C0.287083 2.43474 0 2.74619 0 3.13038C0 3.51458 0.287083 3.82603 0.641218 3.82603H2.88548V3.82607L2.89232 3.82607H2.89236C2.90601 3.82607 2.91869 3.82607 2.9307 3.82603H11.0692C11.0812 3.82607 11.0939 3.82607 11.1075 3.82607H11.1076L11.1145 3.82607V3.82603H13.3588C13.7129 3.82603 14 3.51458 14 3.13038C14 2.74619 13.7129 2.43474 13.3588 2.43474H11.0723C11.0599 2.4347 11.0541 2.43463 11.049 2.43449C10.697 2.42481 10.3865 2.18198 10.2667 1.82276C10.2637 1.81374 10.2601 1.80221 10.2458 1.75553L10.1732 1.51916L10.1617 1.4818C10.1113 1.31749 10.0648 1.16571 9.99945 1.0295C9.74165 0.492415 9.26468 0.11946 8.7135 0.0239743C8.57371 -0.000242504 8.42628 -0.000116289 8.26667 2.02918e-05L8.23038 4.09405e-05H5.76956ZM9.11171 2.43474C9.09345 2.38933 9.07646 2.34308 9.06077 2.29603C9.05151 2.26826 9.04244 2.23873 9.03141 2.20282L9.03138 2.20275L9.02916 2.19552L8.95653 1.95913C8.88744 1.73426 8.87392 1.69694 8.86199 1.67208C8.79168 1.52561 8.6616 1.42389 8.51128 1.39785C8.48577 1.39343 8.44887 1.39132 8.23038 1.39132H5.76956C5.55107 1.39132 5.51417 1.39343 5.48866 1.39785C5.33834 1.42389 5.20825 1.52561 5.13794 1.67208C5.12601 1.69694 5.1125 1.73426 5.04341 1.95913L4.97078 2.1955L4.96862 2.20253L4.96861 2.20257C4.95752 2.23868 4.94845 2.26819 4.93917 2.29602C4.92348 2.34308 4.90648 2.38933 4.88823 2.43474H9.11171ZM1.84549 4.46549C2.19884 4.43993 2.50438 4.72998 2.52794 5.11332L2.87202 10.7125C2.93938 11.8088 2.98703 12.5632 3.09093 13.129C3.19122 13.6751 3.32847 13.9492 3.516 14.1396C3.70354 14.3299 3.96477 14.4603 4.47376 14.5325C5.00104 14.6073 5.69807 14.6087 6.71081 14.6087H7.28935C8.30208 14.6087 8.99911 14.6073 9.5264 14.5325C10.0354 14.4603 10.2966 14.3299 10.4842 14.1396C10.6717 13.9492 10.8089 13.6751 10.9092 13.129C11.0131 12.5632 11.0608 11.8088 11.1281 10.7125L11.4722 5.11332C11.4958 4.72998 11.8013 4.43993 12.1547 4.46549C12.508 4.49105 12.7754 4.82252 12.7518 5.20586L12.4048 10.8531L12.4048 10.8531C12.3411 11.8896 12.2892 12.7353 12.167 13.4008C12.0393 14.0962 11.8199 14.6891 11.3603 15.1556C10.9007 15.622 10.3408 15.8201 9.69274 15.912C9.07254 16 8.29124 16 7.33372 16H6.66644C5.70892 16 4.92762 16 4.30742 15.912C3.65938 15.8201 3.09943 15.622 2.63986 15.1556C2.1803 14.6891 1.96089 14.0962 1.8332 13.4008C1.711 12.7353 1.65905 11.8896 1.59537 10.8531L1.24835 5.20586C1.22479 4.82252 1.49214 4.49105 1.84549 4.46549ZM5.76775 7.1189C5.73252 6.73661 5.41829 6.4577 5.06591 6.49593C4.71354 6.53416 4.45644 6.87505 4.49168 7.25734L4.86573 11.3152C4.90096 11.6975 5.21519 11.9764 5.56757 11.9382C5.91994 11.9 6.17704 11.5591 6.1418 11.1768L5.76775 7.1189ZM8.93396 6.49593C9.28634 6.53416 9.54343 6.87505 9.50819 7.25734L9.13415 11.3152C9.09891 11.6975 8.78469 11.9764 8.43231 11.9382C8.07993 11.9 7.82284 11.5591 7.85808 11.1768L8.23212 7.1189C8.26736 6.73661 8.58158 6.4577 8.93396 6.49593Z" fill="#EA2B4D"/>
</svg>
