<svg width="17" height="17" viewBox="0 0 17 17" fill="none" xmlns="http://www.w3.org/2000/svg">
<g clip-path="url(#clip0_5_46)">
<path fill-rule="evenodd" clip-rule="evenodd" d="M8.50002 0.809937H7.39152H7.39151C5.76096 0.809925 4.47532 0.809916 3.47045 0.945017C2.43867 1.08374 1.61247 1.37482 0.962198 2.0251C0.311924 2.67537 0.0208385 3.50157 -0.117879 4.53334C-0.252981 5.53821 -0.252972 6.82386 -0.25296 8.4544V8.45441V8.54641V8.54642C-0.252972 10.177 -0.252981 11.4626 -0.117879 12.4675C0.0208385 13.4993 0.311924 14.3255 0.962198 14.9757C1.61247 15.626 2.43867 15.9171 3.47045 16.0558C4.4753 16.1909 5.76093 16.1909 7.39144 16.1909H7.39149H7.48354H7.48359C9.11411 16.1909 10.3997 16.1909 11.4046 16.0558C12.4364 15.9171 13.2626 15.626 13.9128 14.9757C14.5631 14.3255 14.8542 13.4993 14.9929 12.4675C15.128 11.4626 15.128 10.177 15.128 8.54649V8.54644V7.43791C15.128 7.1026 14.8562 6.83077 14.5208 6.83077C14.1855 6.83077 13.9137 7.1026 13.9137 7.43791V8.50041C13.9137 10.1871 13.9124 11.3911 13.7895 12.3057C13.6688 13.2028 13.4413 13.73 13.0542 14.1171C12.6671 14.5042 12.1399 14.7317 11.2428 14.8524C10.3282 14.9753 9.12424 14.9766 7.43752 14.9766C5.75079 14.9766 4.54683 14.9753 3.63225 14.8524C2.73513 14.7317 2.20788 14.5042 1.82083 14.1171C1.43377 13.73 1.20619 13.2028 1.08558 12.3057C0.962615 11.3911 0.961326 10.1871 0.961326 8.50041C0.961326 6.81369 0.962615 5.60973 1.08558 4.69514C1.20619 3.79802 1.43377 3.27078 1.82083 2.88372C2.20788 2.49667 2.73513 2.26909 3.63225 2.14848C4.54683 2.02551 5.75079 2.02422 7.43752 2.02422H8.50002C8.83533 2.02422 9.10716 1.7524 9.10716 1.41708C9.10716 1.08176 8.83533 0.809937 8.50002 0.809937ZM14.3791 1.55885C13.3805 0.560297 11.7615 0.560297 10.763 1.55885L6.07826 6.24355L6.05137 6.27044C5.79077 6.53099 5.62285 6.69888 5.47652 6.88649C5.30424 7.10737 5.15653 7.34636 5.03602 7.59924C4.93365 7.81403 4.85859 8.0393 4.74208 8.38891L4.73006 8.42499L4.05517 10.4496C3.91947 10.8568 4.02543 11.3056 4.32887 11.609C4.63231 11.9125 5.08115 12.0184 5.48826 11.8827L7.54903 11.1958C7.89862 11.0793 8.12389 11.0042 8.33867 10.9019C8.59154 10.7814 8.83054 10.6337 9.05142 10.4614C9.23903 10.3151 9.40691 10.1471 9.66746 9.88655L9.66747 9.88654L14.3791 5.17495C15.3776 4.17639 15.3776 2.55741 14.3791 1.55885ZM11.6216 2.41748C12.1459 1.89313 12.9961 1.89313 13.5204 2.41748C14.0448 2.94183 14.0448 3.79197 13.5204 4.31632L13.2839 4.55281C13.2275 4.53831 13.1633 4.51949 13.0932 4.49517C12.809 4.3966 12.4343 4.20989 12.0812 3.85674C11.728 3.50359 11.5413 3.12887 11.4427 2.84476C11.4184 2.77465 11.3996 2.71045 11.3851 2.65398L11.6216 2.41748ZM11.2225 4.71537C11.5965 5.08933 11.9899 5.33585 12.3387 5.49803L8.83573 9.00101C8.53943 9.29731 8.42616 9.4091 8.30461 9.50391C8.15326 9.62195 7.98952 9.72315 7.81626 9.80573C7.6771 9.87205 7.52645 9.92337 7.12893 10.0559L6.25565 10.347L5.59094 9.68226L5.88203 8.80898C6.01454 8.41146 6.06586 8.26081 6.13218 8.12165C6.21475 7.94839 6.31595 7.78464 6.434 7.6333C6.5288 7.51175 6.6406 7.39847 6.93689 7.10218L10.4399 3.59919C10.6021 3.94806 10.8486 4.34141 11.2225 4.71537Z" fill="#0568DB"/>
</g>
<defs>
<clipPath id="clip0_5_46">
<rect width="17" height="17" fill="white"/>
</clipPath>
</defs>
</svg>
