<svg width="18" height="18" viewBox="0 0 18 18" fill="none" xmlns="http://www.w3.org/2000/svg">
<circle cx="6.75073" cy="4.5" r="3" fill="white"/>
<ellipse cx="6.75073" cy="12.7507" rx="5.25" ry="3" fill="white"/>
<path d="M15.7497 12.7503C15.7497 13.993 14.2231 15.0003 12.3591 15.0003C12.9083 14.4001 13.2859 13.6466 13.2859 12.7514C13.2859 11.8551 12.9074 11.1009 12.3572 10.5004C14.2211 10.5004 15.7497 11.5077 15.7497 12.7503Z" fill="white"/>
<path d="M13.4997 4.50055C13.4997 5.74319 12.4924 6.75055 11.2497 6.75055C10.9788 6.75055 10.719 6.70265 10.4784 6.61486C10.8332 5.99079 11.0359 5.26892 11.0359 4.49971C11.0359 3.73108 10.8335 3.0097 10.4792 2.38595C10.7195 2.29834 10.9791 2.25055 11.2497 2.25055C12.4924 2.25055 13.4997 3.25791 13.4997 4.50055Z" fill="white"/>
</svg>
